<?xml version="1.0" encoding="utf-8" ?><svg xmlns="http://www.w3.org/2000/svg" xmlns:xlink="http://www.w3.org/1999/xlink" width="1024" height="1024" viewBox="0 0 1024 1024"><path fill="#048E5A" d="M425.382 77.6687C443.995 75.6924 460.453 75.6705 479.1 75.7055C612.121 75.9554 718.973 123.957 758.875 259.07C751.994 261.258 743.996 262.925 736.856 264.854C723.012 268.589 709.256 272.637 695.596 276.997C677.151 283.003 658.88 289.534 640.807 296.583C632.645 299.795 624.176 303.697 616.184 306.76C614.611 301.43 613.417 296.197 611.697 290.921C602.458 262.577 586.028 237.408 558.71 223.21C517.591 201.839 455.953 201.141 411.931 213.83C383.308 222.08 359.707 240.279 345.72 266.451C342.284 272.938 339.287 279.648 336.749 286.536C333.844 295.913 330.173 308.38 328.492 317.949C321.401 358.326 319.349 400.542 318.747 441.478C317.857 501.965 318.078 568.347 333.44 627.144C345.549 661.622 358.571 682.858 393.334 699.557C410.213 707.767 428.753 711.862 447.312 713.968C453.728 714.696 461.012 714.244 467.153 715.825C469.343 716.388 473.617 722.928 475.438 724.863C478.541 728.159 481.785 731.379 484.927 734.638C506.479 757.015 527.81 779.604 548.916 802.403C553.679 807.477 572.628 826.682 575.82 831.657C575.843 832.204 576.083 833.492 575.63 833.627C554.803 839.824 511.777 844.785 492.188 844.065C487.873 844.639 477.455 844.446 473.011 844.458C444.959 844.533 417.024 842.553 389.391 837.607C382.201 836.32 373.385 835.042 366.493 832.874L371.821 832.447C369.755 831.625 367.903 832.196 367.065 831.86C349.037 824.313 329.081 819.055 311.075 811.301C303.751 808.147 297.068 802.303 288.168 798.892C265.955 790.377 251.901 769.825 234.445 755.013C232.336 753.224 218.661 735.135 218.764 733.55C220.281 734.91 222.631 737.235 224.361 738.055C224.343 737.912 224.347 737.765 224.308 737.626C223.742 735.605 220.673 734.173 219.077 733.006C214.238 729.468 206.663 713.961 203.544 707.982C186.04 674.429 176.606 629.212 172.278 591.914C171.365 584.045 171.31 576.134 170.693 568.252C170.425 564.816 169.688 561.441 169.399 558.007C168.541 547.802 168.064 537.522 167.559 527.292C167.096 517.916 166.747 508.386 166.733 498.999C166.725 493.396 167.643 486.97 166.675 481.496C165.252 473.453 166.693 464.942 166.893 456.876C166.985 453.161 166.376 449.437 166.422 445.701C166.61 430.417 167.347 415.065 167.919 399.793C167.922 402.885 167.844 415.796 168.592 418.077C169.6 416.922 168.784 397.135 168.748 393.726L168.53 394.706C168.276 389.888 169.272 386.956 169.332 382.876C169.437 375.73 169.065 370.457 169.856 363.187C170.186 364.576 170.041 370.358 170.045 372.256L170.447 372.481C170.996 369.985 170.773 362.503 170.856 359.511C171 354.295 171.308 350.98 172.067 345.772L172.257 348.476C172.986 342.991 172.466 340.81 171.966 335.255L172.081 333.752C186.129 205.164 251.13 107.909 382.936 83.4686C396.45 80.9627 411.653 77.9163 425.382 77.6687Z"/><path fill="#1E815D" d="M333.44 627.144C330.923 624.822 325.879 600.347 325.761 596.136L325.742 595.288C325.494 596.365 325.224 597.437 324.933 598.503C323.482 597.512 321.563 586.106 321.489 583.809C321.345 579.708 323.118 573.654 322 569.82C320.203 563.66 320.772 557.455 320.142 551.064C318.827 537.72 317.938 524.437 318.145 511.026C318.208 506.918 316.761 502.069 316.804 497.86C318.578 466.547 314.095 435.111 318.452 403.974C318.928 400.573 318.539 396.176 319.23 392.957C320.407 387.468 315.594 383.742 319.186 378.651L319.595 378.768C319.704 380.916 319.621 383.07 319.345 385.203C319.303 385.427 319.262 385.651 319.22 385.875C323.093 374.801 317.488 363.618 322.115 352.907C322.616 351.749 322.625 352.367 322.856 350.901L321.876 350.207C321.28 344.523 321.576 340.833 324.107 335.964C324.892 334.454 322.613 329.553 324.599 327.505C325.043 328.653 324.809 328.742 325.52 329.14C327.536 323.158 326.004 316.108 329.515 308.219C332.095 302.423 332.639 293.785 335.745 286.864L336.749 286.536C333.844 295.913 330.173 308.38 328.492 317.949C321.401 358.326 319.349 400.542 318.747 441.478C317.857 501.965 318.078 568.347 333.44 627.144Z"/><path fill="#1E815D" d="M172.081 333.752C186.129 205.164 251.13 107.909 382.936 83.4686C396.45 80.9627 411.653 77.9163 425.382 77.6687L425.153 78.6474C389.116 80.8771 346.781 91.424 313.828 106.648C311.716 107.748 310.207 108.699 308.158 110.052C306.05 111.444 299.399 113.684 297.966 115.382C296.055 117.649 296.893 118.083 293.627 119.405C293.862 118.739 293.993 118.522 293.963 117.808C285.129 121.993 249.717 149.233 246.01 156.981C248.516 155.503 248.985 152.732 251.551 151.503L252.09 151.756C248.676 155.481 241.369 162.779 238.81 166.156C238.549 165.075 238.779 165.324 239.391 163.865C228.126 173.549 205.444 211.845 200.616 227.123C199.411 230.937 197.199 234.582 195.641 238.289C194.49 241.027 193.463 243.996 192.52 246.801C190.234 253.473 188.142 260.21 186.247 267.003C184.907 271.977 183.894 277.214 182.219 282.029C180.8 286.11 181.129 290.788 179.248 294.656C177.92 297.386 178.554 298.968 179.468 301.826C178.863 303.19 178.599 303.681 177.82 304.955L178.084 304.292C176.456 307.926 175.039 310.473 177.174 314.034L177.076 315.299L176.391 315.241L176.731 315.327L176.09 315.459C172.328 321.133 177.205 328.122 172.081 333.752Z"/><path fill="#1E815D" d="M371.821 832.447C374.2 832.4 383.533 834.95 387.709 834.99C392.152 835.033 400.567 837.5 405.287 838.273C419.572 840.517 433.948 842.139 448.375 843.133C458.431 843.798 470.673 842.9 480.973 843.613C484.406 843.85 488.838 843.545 492.188 844.065C487.873 844.639 477.455 844.446 473.011 844.458C444.959 844.533 417.024 842.553 389.391 837.607C382.201 836.32 373.385 835.042 366.493 832.874L371.821 832.447Z"/><path fill="#048E5A" d="M602.498 625.325C608.703 618.861 612.038 598.381 616.345 589.925C617.107 588.428 627.68 589.44 629.502 589.565C629.855 614.595 629.081 639.956 629.42 665.019C629.487 669.962 629.206 690.021 630.419 693.923C633.785 694.654 649.378 694.538 653.543 694.584L712.333 694.954C712.318 684.714 712.161 672.225 712.626 662.084C722.534 661.674 735.981 661.916 746.039 662.203C742.039 683.119 720.901 718.71 707.731 735.985C710.984 739.574 723.88 752.665 725.569 755.566C728.65 758.333 745.51 776.275 747.857 779.409C763.715 796.554 779.583 813.87 795.553 830.932C796.525 831.97 801.558 837.226 802.08 838.131C807.312 843.266 811.747 849.472 816.727 854.517C812.84 853.852 808.31 854.187 804.329 854.38L785.518 855.048C785.76 849.421 785.113 839.66 786.047 834.473C783.065 834.839 763.567 834.523 759.852 834.449C744.582 834.144 728.333 834.913 713.245 834.346C712.459 821.997 713.273 807.799 713.101 795.328C713.017 789.23 713.489 783.678 712.922 777.48C707.922 777.527 702.921 777.775 697.832 777.81C676.612 777.404 651.094 777.063 630.036 777.576L630.101 828.337C630.164 838.968 630.594 850.027 630.331 860.607C653.32 860.347 677.13 861.389 700.079 860.879C702.399 862.643 701.529 877.043 701.513 880.822L701.368 917.63C708.202 917.458 771.45 917.321 772.85 918.483L772.503 919.162C770.174 922.731 759.216 932.649 755.575 935.918C746.485 944.081 733.356 958.405 723.727 965.371L616.923 850.191L576.668 807.644C569.825 800.367 560.769 791.134 554.577 783.533C552.233 782.096 526.155 754.067 522.349 750.131C515.089 742.626 504.095 730.992 496.426 723.066C489.59 715.999 482.211 707.64 474.718 700.906C467.494 694.412 459.284 688.556 451.483 682.744C450.12 682.298 437.624 674.803 435.189 673.498C428.632 669.983 423.746 667.935 416.814 665.077C427.705 644.859 460.479 608.014 481.458 600.272C500.788 587.234 538.194 586.295 559.247 595.61C561.564 596.307 561.606 595.907 562.654 597.531C561.14 597.785 560.169 597.549 558.663 597.339L531.56 598.142C530.972 605.934 530.908 624.082 531.396 631.937C541.192 631.919 557.152 632.367 566.251 631.493C565.694 624.844 565.674 605.668 566.502 598.98C578.452 604.463 592.764 616.766 602.498 625.325ZM584.462 760.928C595.622 761.191 610.916 761.598 621.966 761.012C621.042 757.661 621.553 730.053 621.616 724.413C615.21 723.718 591.185 723.731 584.494 724.382C584.536 733.875 585.15 752.131 584.462 760.928ZM471.455 663.676C483.062 662.877 492.058 663.112 503.673 663.55C505.101 659.758 504.492 636.147 504.417 630.511C493.439 630.546 482.461 630.52 471.483 630.435C470.674 636.387 470.721 657.756 471.455 663.676Z"/><path fill="#1E815D" d="M697.832 777.81C700.579 777.017 712.111 776.251 714.326 777.463C717.222 779.047 714.781 797.036 715.09 799.709C715.833 806.122 712.9 826.562 714.645 831.688C717.346 832.374 723.541 832.25 726.756 832.344C735.924 832.609 745.156 833.098 754.319 833.121C762.337 833.141 778.95 830.28 786.196 833.941L786.047 834.473C783.065 834.839 763.567 834.523 759.852 834.449C744.582 834.144 728.333 834.913 713.245 834.346C712.459 821.997 713.273 807.799 713.101 795.328C713.017 789.23 713.489 783.678 712.922 777.48C707.922 777.527 702.921 777.775 697.832 777.81Z"/><path fill="#1E815D" d="M700.079 860.879C702.399 862.643 701.529 877.043 701.513 880.822L701.368 917.63C708.202 917.458 771.45 917.321 772.85 918.483L772.503 919.162C769.344 918.107 727.757 918.669 722.16 918.863C725.804 919.75 745.086 918.917 750.465 919.074L750.593 919.476C745.103 920.429 709.526 920.331 701.793 918.913C700.902 918.75 700.04 917.635 699.599 916.562C698.817 903.763 700.141 878.504 698.465 864.755C698.413 864.326 696.798 863.964 696.146 863.752L697.275 863.488C697.675 863.002 698.085 862.525 698.503 862.055L699.969 862.595L700.291 862.178L700.01 862.565C700.363 861.474 700.33 862.035 700.079 860.879Z"/><path fill="#1E815D" d="M529.749 634.661C528.998 623.321 529.195 609.3 530.037 598.058C530.183 596.106 544.167 596.926 546.49 596.797C550.126 596.595 555.69 595.442 558.663 597.339L531.56 598.142C530.972 605.934 530.908 624.082 531.396 631.937C541.192 631.919 557.152 632.367 566.251 631.493C566.577 633 566.682 632.282 566.2 633.694C563.574 634.521 535.649 634.129 529.749 634.661Z"/><path fill="#1E815D" d="M451.483 682.744C467.153 685.739 504.528 733.846 519.813 743.358C520.229 743.616 522.136 748.673 523.131 749.742C530.028 757.157 537.788 764.119 544.412 771.743C546.283 773.897 554.725 781.436 554.577 783.533C552.233 782.096 526.155 754.067 522.349 750.131C515.089 742.626 504.095 730.992 496.426 723.066C489.59 715.999 482.211 707.64 474.718 700.906C467.494 694.412 459.284 688.556 451.483 682.744Z"/><path fill="#1E815D" d="M481.458 600.272C500.788 587.234 538.194 586.295 559.247 595.61C551.984 595.417 544.985 589.972 537.664 592.038C536.432 592.385 519.04 591.583 518.263 591.154C520.748 591.082 526.778 590.949 528.887 590.437C518.81 589.931 505.8 590.97 496.601 595.281L496.777 595.16C494.46 596.182 483.64 600.242 481.458 600.272Z"/><path fill="#1E815D" d="M725.569 755.566C728.65 758.333 745.51 776.275 747.857 779.409C746.003 778.829 744.846 776.997 743.249 775.939C736.933 771.756 731.861 766.906 728.426 760.077C727.502 758.242 726.511 758.666 725.569 755.566Z"/><path fill="#1E815D" d="M802.08 838.131C807.312 843.266 811.747 849.472 816.727 854.517C812.84 853.852 808.31 854.187 804.329 854.38C806.707 852.836 807.034 853.551 810.055 853.156C809.782 852.092 810.037 852.556 809.299 851.76C807.622 844.062 803.972 843.68 802.08 838.131Z"/><path fill="#1E815D" d="M621.966 761.012C621.042 757.661 621.553 730.053 621.616 724.413C626.438 735.878 625.599 749.317 621.966 761.012Z"/><path fill="#048E5A" d="M69.3495 312.07C80.0112 312.226 90.253 312.45 100.919 312.033C101.841 346.1 101.091 383.623 101.1 417.9L101.114 624.047L101.378 697.527C101.355 711.438 100.689 731.907 101.707 745.351C116.135 746.716 132.654 750.824 146.943 753.889C168.484 758.51 190.13 763.285 211.34 769.223C214.6 770.166 227.559 773.05 229.571 774.806C236.765 781.085 244.463 789.013 251.945 795.224C276.121 815.011 303.689 830.243 333.308 840.179C360.051 849.177 375.273 852.368 403.557 856.262C413.156 857.554 422.793 858.545 432.454 859.234C438.317 859.61 450.13 859.269 455.165 860.765C459.181 861.958 468.862 867.149 473.015 869.302C475.091 868.107 480.761 864.761 482.988 864.196C490.938 858.206 499.705 860.165 509.745 859.622C525.918 859.001 548.13 855.75 563.834 853.02C568.278 853.592 571.208 852.316 575.527 852.408L575.887 853.192C571.875 857.127 566.84 857.042 564.867 860.133C542.556 871.078 519.525 880.527 497.657 892.512C489.904 896.761 480.647 902.171 472.612 905.533C470.127 904.639 464.519 901.491 461.989 900.169L441.63 889.641C424 880.843 406.219 872.353 388.294 864.175C359.091 851.243 329.361 839.535 299.181 829.084C285.918 824.516 272.335 820.45 258.96 815.768C255.22 815.039 243.787 811.259 239.404 809.992C226.6 806.284 213.737 802.785 200.819 799.497C179.427 793.985 157.911 788.962 136.289 784.435C126.51 782.359 116.539 780.646 106.871 778.493C102.778 778.165 96.1313 776.759 91.8865 775.995C84.6198 774.651 77.3192 773.498 69.9921 772.536L69.5565 485.5C69.7296 440.708 69.6658 395.916 69.365 351.125C69.2891 338.21 69.5698 324.914 69.3495 312.07Z"/><path fill="#1E815D" d="M106.871 778.493C110.966 778.053 109.95 778.227 113.697 778.953C128.027 781.728 136.232 779.102 149.937 786.264L151.173 785.229L151.897 785.524L151.463 786.483C154.934 787.743 160.712 788.752 164.466 789.563L190.601 795.054C193.017 795.581 195.532 797.073 197.979 797.651C201.488 798.481 206.326 798.495 209.632 799.36C219.634 801.974 229.366 803.759 239.091 807.365C241.943 808.422 247.675 808.958 249.598 811.049C251.979 813.639 258.527 813.577 258.96 815.768C255.22 815.039 243.787 811.259 239.404 809.992C226.6 806.284 213.737 802.785 200.819 799.497C179.427 793.985 157.911 788.962 136.289 784.435C126.51 782.359 116.539 780.646 106.871 778.493Z"/><path fill="#1E815D" d="M482.988 864.196C490.938 858.206 499.705 860.165 509.745 859.622C505.745 862.678 495.79 861.398 491.127 861.447C488.319 861.476 485.533 864.609 482.988 864.196Z"/><path fill="#048E5A" d="M839.579 260.13L844.543 259.286C844.672 261.184 844.874 263.345 844.933 265.22C844.889 282.06 845.293 299.973 844.855 316.649L844.285 317.497C844.253 323.071 843.699 329.198 836.777 328.694C829.992 328.2 823.895 328.161 817.397 328.838C816.756 323.1 816.9 299.013 817.195 292.103C807.786 293.572 798.322 295.67 788.972 297.555C703.182 314.626 621.033 346.548 546.226 391.881C529.503 402.425 513.157 413.556 497.218 425.252C492.407 428.804 476.661 441.488 472.911 443.412C458.794 430.784 427.067 407.929 410.839 397.613C404.689 393.712 398.462 389.933 392.162 386.281C390.382 385.238 381.473 380.137 380.605 379.314C378.148 378.193 375.308 376.522 372.927 375.188C361.747 368.928 350.357 363.379 338.887 357.698C339.158 348.986 341.631 337.399 342.583 328.325C344.561 329.138 345.551 329.63 347.41 330.69C352.876 332.571 361.711 337.32 366.996 340.062C392.606 353.455 417.364 368.417 441.129 384.862C450.085 390.962 464.661 401.048 472.562 408.299C475.626 406.602 479.708 403.199 482.66 400.998C488.154 396.951 493.687 392.957 499.259 389.017C571.226 338.392 655.634 303.746 740.161 280.475C747.99 278.319 763.855 273.776 771.461 273.073C776.5 271.463 785.367 269.795 790.776 268.72C806.874 265.52 823.367 262.853 839.579 260.13Z"/><path fill="#1E815D" d="M342.583 328.325C344.561 329.138 345.551 329.63 347.41 330.69C346.118 331.08 345.489 330.733 344.238 330.37L343.382 330.685C341.9 339.152 340.764 348.46 339.675 357.042C344.599 359.343 349.162 361.581 354.31 363.361L352.665 362.333C356.298 363.818 379.564 377.015 380.605 379.314C378.148 378.193 375.308 376.522 372.927 375.188C361.747 368.928 350.357 363.379 338.887 357.698C339.158 348.986 341.631 337.399 342.583 328.325Z"/><path fill="#1E815D" d="M771.461 273.073C776.5 271.463 785.367 269.795 790.776 268.72C806.874 265.52 823.367 262.853 839.579 260.13L839.923 261.435C836.17 261.068 822.576 264.321 817.759 264.834L817.847 265.198L821.48 265.701C818.726 267.278 815.503 265.371 813.422 265.935C809.204 267.078 809.142 269.744 804.1 267.317C796.482 267.645 777.351 273.815 771.461 273.073Z"/><path fill="#1E815D" d="M839.579 260.13L844.543 259.286C844.672 261.184 844.874 263.345 844.933 265.22C843.2 263.409 841.83 264.015 839.923 261.435L839.579 260.13Z"/><path fill="#048E5A" d="M114.401 258.77C118.358 259.37 122.43 259.863 126.241 261.05C131.718 261.478 163.593 267.476 168.397 269.207C166.089 277.965 163.745 287.08 161.163 295.735C155.649 294.565 147.401 292.661 141.94 292.346L141.524 553.669C141.288 595.821 141.321 637.974 141.621 680.125C152.261 682.281 166.521 685.377 176.893 688.305C179.525 693.007 181.703 699.471 183.91 704.527C186.223 709.826 189.005 715.436 190.93 720.821L114.075 703.087L113.872 418.249L113.961 318.317C113.991 302.582 113.469 283.692 114.168 268.161C114.332 265.15 114.335 261.811 114.401 258.77Z"/><path fill="#1E815D" d="M114.401 258.77C118.358 259.37 122.43 259.863 126.241 261.05C114.008 261.266 120.505 260.26 114.168 268.161C114.332 265.15 114.335 261.811 114.401 258.77Z"/><path fill="#048E5A" d="M815.501 647.606C825.231 647.403 834.964 647.342 844.696 647.423C844.782 652.43 844.926 657.105 844.556 662.115C844.931 672.677 844.585 683.263 844.803 693.829C844.864 696.789 845.031 699.76 844.867 702.717C835.916 703.999 827.861 706.009 819.051 708.031C800.301 712.466 781.66 717.347 763.143 722.672C755.304 724.911 738.438 729.418 731.342 732.512C735.804 723.532 745.665 706.717 749.698 697.979C750.976 695.209 801.502 682.9 806.84 681.931L815.905 679.886C816.142 669.471 815.867 657.973 815.501 647.606Z"/><path fill="#1E815D" d="M815.501 647.606C825.231 647.403 834.964 647.342 844.696 647.423C844.782 652.43 844.926 657.105 844.556 662.115C843.406 656.472 844.067 651.594 843.45 648.833C839.747 647.766 825.711 648.263 821.315 648.318L821.056 648.562C824.981 648.722 838.602 648.191 841.003 649.454L841.583 651.07C837.648 648.472 825.65 649.127 820.885 649.826C816.664 657.075 818.119 662.139 817.841 670.23C817.496 680.283 817.966 683.489 806.84 681.931L815.905 679.886C816.142 669.471 815.867 657.973 815.501 647.606Z"/><path fill="#048E5A" d="M858.468 312.499C867.251 311.878 880.663 312.167 889.922 312.037C890.008 314.973 889.984 317.736 889.95 320.669C890.237 337.856 889.37 360.83 890.38 377.317C886.886 377.419 880.614 377.748 877.431 377.107L875.614 377.695C874.762 382.17 875.298 392.085 875.293 397.051C875.283 408.727 875.767 420.98 875.346 432.645C875.517 441.177 875.503 449.713 875.306 458.245C869.803 458.47 865.088 458.246 859.607 457.92C859.327 455.267 859.022 452.994 859.086 450.313L858.953 355.824C858.913 344.851 857.654 322.107 858.468 312.499Z"/><path fill="#1E815D" d="M877.431 377.107C880.026 376.605 882.39 376.977 885.319 375.614C887.055 374.806 886.19 376.521 889.31 376.371C889.376 363.531 886.917 351.358 888.766 338.467C889.481 333.483 888.429 325.156 889.95 320.669C890.237 337.856 889.37 360.83 890.38 377.317C886.886 377.419 880.614 377.748 877.431 377.107Z"/><path fill="#1E815D" d="M859.086 450.313C859.941 452.204 860.072 453.554 861.182 455.386C862.482 458.136 869.59 457.449 871.273 455.633C874.937 451.679 874.617 438.661 874.79 433.49L875.346 432.645C875.517 441.177 875.503 449.713 875.306 458.245C869.803 458.47 865.088 458.246 859.607 457.92C859.327 455.267 859.022 452.994 859.086 450.313Z"/><path fill="#048E5A" d="M643.616 356.536C646.202 356.901 657.515 356.591 660.796 356.58L699.013 356.464C700.061 365.027 699.221 380.123 699.504 389.319C699.636 393.63 699.772 409.315 699.33 413.2L698.571 413.679C682.843 414.258 659.669 413.821 643.675 413.437C643.171 407.848 643.452 401.067 643.303 395.347C642.959 382.222 642.976 369.663 643.616 356.536Z"/><path fill="#048E5A" d="M643.529 556.047C656.492 555.806 679.733 555.202 692.169 555.975L699.175 555.926C699.56 568.985 699.428 582.004 699.215 595.064C699.13 600.276 699.49 608.3 699.008 613.247C692.32 613.434 681.966 613.747 675.44 613.153C667.483 613.271 650.57 613.885 643.443 612.893C643.253 594.382 643.136 574.498 643.529 556.047Z"/><path fill="#1E815D" d="M692.169 555.975L699.175 555.926C699.56 568.985 699.428 582.004 699.215 595.064C699.13 600.276 699.49 608.3 699.008 613.247C692.32 613.434 681.966 613.747 675.44 613.153C679.123 612.35 692.317 612.753 693.537 611.499L692.029 610.665C696.914 610.275 694.936 609.946 696.386 606.856C698.933 601.427 696.073 562.251 697.259 560.363L697.869 560.503C698.708 564.632 697.346 578.328 698.231 581.926C698.492 574.025 697.888 565.017 698.467 557.527L698.531 556.747C695.766 556.755 694.803 556.919 692.169 555.975Z"/><path fill="#048E5A" d="M797.843 433.735C812.559 433.893 827.348 433.672 842.032 433.982C842.285 447.903 841.845 461.992 842.063 475.93C842.134 480.489 842.187 486.06 841.652 490.544L829.875 490.54L785.359 490.45C785.6 483.191 784.542 437.061 786.681 434.354C789.641 433.671 794.624 433.781 797.843 433.735Z"/><path fill="#048E5A" d="M788.425 343.594C807.044 343.333 825.723 343.632 844.372 343.419C844.731 353.847 844.402 365.231 844.428 375.766C844.445 382.724 844.693 393.359 844.018 399.934C839.65 399.562 830.465 399.876 825.804 399.89C813.381 399.98 800.957 399.989 788.534 399.918C788.066 394.808 788.323 386.232 788.276 380.738C788.173 368.635 787.771 355.61 788.425 343.594Z"/><path fill="#048E5A" d="M645.926 425.704C663.472 425.489 681.432 425.599 699 425.606C699.138 433.059 699.811 479.43 698.708 482.453L697.125 482.639L643.522 482.556C643.175 475.925 642.495 431.133 643.807 426.118L645.926 425.704Z"/><path fill="#048E5A" d="M716.477 399.062C731.87 398.636 747.411 399.156 762.817 399.057C765.999 399.036 769.12 399.135 772.293 399.388L772.106 433.986C772.106 440.265 772.378 449.354 771.87 455.429C768.172 455.472 762.934 455.693 759.353 455.494C747.017 456.221 729.703 455.297 716.65 455.585C715.694 440.236 716.078 422.474 716.118 406.983L716.477 399.062Z"/><path fill="#1E815D" d="M716.477 399.062C731.87 398.636 747.411 399.156 762.817 399.057C765.999 399.036 769.12 399.135 772.293 399.388L772.106 433.986C772.106 440.265 772.378 449.354 771.87 455.429C768.172 455.472 762.934 455.693 759.353 455.494C761.779 454.444 766.905 454.87 767.673 453.481C773.229 441.732 769.586 425.052 770.7 412.168C771.365 404.47 766.598 404.446 767.11 401.89L768.321 401.812C770.44 402.808 769.973 404.242 771.216 404.834L771.408 400.223C754.385 400.355 737.912 399.758 720.963 399.745C719.359 401.856 716.995 404.598 716.118 406.983L716.477 399.062Z"/><path fill="#048E5A" d="M756.777 330.751C761.982 330.544 766.556 330.602 771.746 330.7C772.106 336.282 771.906 344.561 771.93 350.36L772.076 387.003C761.259 388.049 743.229 387.472 731.566 387.505C726.526 387.52 721.487 387.436 716.451 387.254C716.268 384.582 716.236 381.969 716.218 379.296C716.109 363.204 715.82 347.131 716.541 331.051C728.835 330.488 744.223 330.836 756.777 330.751Z"/><path fill="#048E5A" d="M715.46 848.133C732.255 847.607 754.641 847.772 771.493 848.18C771.819 863.491 771.069 878.998 771.393 894.332C771.463 897.662 771.405 901.123 771.025 904.428C755.097 904.659 731.066 905.151 715.437 904.16L715.46 848.133Z"/><path fill="#048E5A" d="M850.996 471.795C856.393 471.232 866.229 471.546 871.816 471.593C883.198 471.77 894.582 471.757 905.964 471.553C906.486 485.965 906.324 503.436 906.013 517.899C906.201 521.508 906.128 524.456 906.023 528.074C892.912 528.007 879.439 528.095 866.358 527.818C860.891 527.863 855.922 527.716 850.468 527.506C850.347 508.934 850.523 490.362 850.996 471.795Z"/><path fill="#1E815D" d="M850.996 471.795C856.393 471.232 866.229 471.546 871.816 471.593C883.198 471.77 894.582 471.757 905.964 471.553C906.486 485.965 906.324 503.436 906.013 517.899C905.228 510.611 904.569 502.818 904.308 495.495C904.126 490.396 904.795 484.876 903.887 479.867C903.6 478.284 903.162 477.097 901.856 476.079C901.153 475.531 900.487 475.123 899.597 474.995C895.82 474.45 891.606 475.004 887.771 474.917C878.958 474.717 869.347 473.431 860.64 474.813C859.089 475.059 856.267 475.432 855.379 476.905C852.744 481.276 851.854 517.364 853.619 522.755C853.96 523.796 854.492 524.818 854.973 525.799C857.063 525.935 865.18 526.771 866.358 527.818C860.891 527.863 855.922 527.716 850.468 527.506C850.347 508.934 850.523 490.362 850.996 471.795Z"/><path fill="#048E5A" d="M643.652 624.861C648.985 624.23 660.626 624.445 666.195 624.708C675.137 624.517 690.119 624.127 698.87 624.679C699.808 641.61 698.956 663.141 699.044 680.483C696.711 680.585 694.059 680.766 691.751 680.756C684.604 680.496 676.709 680.721 669.311 680.522C665.091 681.063 648.555 680.591 643.491 680.546C643.267 676.518 643.131 672.844 643.42 668.821C643.178 655.781 643.048 637.772 643.652 624.861Z"/><path fill="#1E815D" d="M666.195 624.708C675.137 624.517 690.119 624.127 698.87 624.679C699.808 641.61 698.956 663.141 699.044 680.483C696.711 680.585 694.059 680.766 691.751 680.756C693.522 678.846 694.032 678.192 696.502 677.542C695.371 678.341 694.634 678.531 694.278 679.577C696.018 680.02 696.387 679.863 698.119 679.585C698.219 673.336 697.54 668.805 697.302 662.745C697.007 655.194 697.376 647.11 697.389 639.526C697.395 636.1 696.781 630.725 697.129 627.652L698.166 627.626L697.838 625.711C696.063 625.441 692.768 625.65 690.857 625.708L692.101 626.621L691.186 626.082L691.944 626.435C687.845 627.322 671.846 625.939 667.06 624.903L666.195 624.708Z"/><path fill="#1E815D" d="M643.42 668.821C644.589 672.704 642.923 673.713 645.076 676.877C649.332 683.13 666.13 677.732 669.311 680.522C665.091 681.063 648.555 680.591 643.491 680.546C643.267 676.518 643.131 672.844 643.42 668.821Z"/><path fill="#048E5A" d="M822.154 577.721C834.118 577.165 846.544 577.787 858.556 577.535C863.882 577.423 869.801 577.463 875.086 577.891C875.915 583.001 875.541 631.874 874.442 633.543C858.807 633.551 834.241 634.231 819.404 632.984C819.476 627.399 819.079 579.735 819.996 578.098L822.154 577.721Z"/><path fill="#048E5A" d="M889.664 391.536C892.664 390.143 937.492 390.326 944.004 390.597C945.394 405.894 944.324 430.735 944.489 446.852C933.742 447.003 922.997 446.756 912.249 446.617C904.828 446.521 896.765 447.018 889.461 446.394C889.461 440.113 889.251 432.322 889.537 426.164C889.029 421.905 889.349 396.426 889.664 391.536Z"/><path fill="#1E815D" d="M889.664 391.536C892.664 390.143 937.492 390.326 944.004 390.597C945.394 405.894 944.324 430.735 944.489 446.852C933.742 447.003 922.997 446.756 912.249 446.617C904.828 446.521 896.765 447.018 889.461 446.394C889.461 440.113 889.251 432.322 889.537 426.164C890.821 429.234 889.611 439.98 890.268 444.813C893.554 447.218 894.77 443.453 896.419 444.149C899.682 445.527 901.061 445.028 904.902 444.852L902.569 445.755C909.018 445.733 915.489 445.698 921.936 445.814C928.815 445.938 936.079 446.644 942.916 445.705C943.598 444.057 943.313 442.094 943.284 440.176L942.211 441.232C942.576 428.428 942.241 409.329 942.405 395.815C942.423 394.252 941.464 396.469 941.266 393.472L942.099 393.632C943.003 395.328 943.067 396.808 943.128 398.704C944.456 396.235 944.293 394.098 942.371 391.986C939.581 390.501 912.834 392.517 907.862 391.732C906.535 391.523 895.861 391.842 894.556 392.131C891.23 396.699 892.059 407.39 891.278 413.347L891.338 412.577C889.993 410.98 891.85 398.084 891.934 395.984L890.722 394.92C890.997 393.171 892.288 394.123 892.388 391.814L889.664 391.536Z"/><path fill="#048E5A" d="M716.039 591.876C732.959 591.097 753.359 591.617 770.51 591.618C771.188 597.732 771.008 606.073 770.999 612.314C770.94 622.444 770.957 632.574 771.05 642.704C768.462 647.818 763.124 646.417 758.39 648.151C755.919 648.87 719.538 647.812 715.702 647.351C716.523 630.875 715.97 608.821 716.039 591.876Z"/><path fill="#048E5A" d="M667.454 790.742C677.877 790.823 688.967 791.097 699.339 790.844C699.717 795.946 699.741 801.648 699.612 806.771C699.279 820.051 699.99 833.802 699.364 847.039C682.65 847.024 665.033 847.284 648.39 846.833C646.697 846.934 645.427 846.716 643.739 846.545C644.591 832.162 643.013 816.345 643.894 801.934C645.446 804.176 645.44 804.764 645.84 807.497C647.362 803.761 646.093 799.136 647.643 795.237C650.245 788.695 662.205 793.398 667.618 791.382L667.454 790.742Z"/><path fill="#1E815D" d="M643.894 801.934C645.446 804.176 645.44 804.764 645.84 807.497L645.492 827.505C645.428 834.489 646.098 838.593 644.815 845.586C647.782 846.352 647.023 844.781 648.337 846.365L648.39 846.833C646.697 846.934 645.427 846.716 643.739 846.545C644.591 832.162 643.013 816.345 643.894 801.934Z"/><path fill="#048E5A" d="M887.002 615.01C892.01 614.518 898.952 614.74 904.091 614.762C913.15 614.806 922.209 614.79 931.268 614.715C934.22 616.998 939.849 614.782 941.438 616.234C941.929 618.856 941.898 634.119 941.642 637.375C941.493 633.736 941.617 623.56 940.58 620.833L940.359 620.987C940.671 634.163 939.639 650.546 940.214 662.813C941.059 659.545 941.247 656.437 941.581 653.086L941.935 653.159L941.82 652.818L942.493 656.177C942.982 660.031 942.606 666.343 942.474 670.422C936.296 670.483 922.353 670.959 916.797 670.428C911.792 670.586 890.839 671.012 887.007 669.937C886.302 668.573 886.503 666.999 886.504 665.404C886.351 648.605 886.517 631.804 887.002 615.01Z"/><path fill="#1E815D" d="M940.214 662.813C941.059 659.545 941.247 656.437 941.581 653.086L941.935 653.159L941.82 652.818L942.493 656.177C942.982 660.031 942.606 666.343 942.474 670.422C936.296 670.483 922.353 670.959 916.797 670.428C911.792 670.586 890.839 671.012 887.007 669.937C886.302 668.573 886.503 666.999 886.504 665.404C888.989 668.215 888.66 668.241 892.14 668.764C898.394 667.536 936.405 669.197 938.435 667.947C939.704 666.593 939.838 664.692 940.214 662.813Z"/><path fill="#048E5A" d="M852.997 745.718L853.89 745.741L854.43 746.695C854.286 752.246 854.62 774.601 853.491 778.259C848.519 781.205 794.024 791.104 782.474 793.883C779.093 790.027 775.682 786.199 772.24 782.399C767.757 776.898 762.75 771.947 757.791 766.873C764.062 764.12 780.683 760.528 787.843 758.855C802.818 755.241 817.88 752 833.016 749.137C839.223 747.968 846.806 746.37 852.997 745.718Z"/><path fill="#048E5A" d="M578.043 395.736L607.442 395.754C613.74 395.756 620.202 395.501 626.46 396.01C626.771 401.42 626.962 406.332 626.554 411.745C626.948 422.82 626.91 433.907 626.441 444.98L619.453 445.098C606.934 445.608 590.021 445.783 577.566 445.244C577.392 428.74 577.551 412.234 578.043 395.736Z"/><path fill="#1E815D" d="M619.453 445.098C620.812 444.525 625.366 441.131 625.486 440.049C626.489 431.05 624.953 420.715 626.554 411.745C626.948 422.82 626.91 433.907 626.441 444.98L619.453 445.098Z"/><path fill="#048E5A" d="M578.217 526.011C594.517 525.745 611.159 526.165 627.559 526.07C627.495 531.998 627.908 572.021 626.867 574.402C613.306 575.572 592.484 575.138 578.455 574.986C577.402 561.309 578.129 540.162 578.217 526.011Z"/><path fill="#048E5A" d="M902.064 545.467C917.081 545.488 935.584 544.99 950.423 545.61C950.813 560.193 950.949 579.876 950.441 594.489L942.672 594.469C929.763 594.86 914.43 594.668 901.476 594.324C902.285 586.225 901.789 574.598 901.938 566.103C901.253 559.066 901.485 552.492 902.064 545.467Z"/><path fill="#1E815D" d="M902.064 545.467C917.081 545.488 935.584 544.99 950.423 545.61C950.813 560.193 950.949 579.876 950.441 594.489L942.672 594.469C946.391 592.818 946.969 594.145 949.155 592.783C950.171 590.858 949.912 555.165 949.742 549.873L949.216 549.786C947.325 551.781 950.308 585.321 948.651 589.757C947.524 588.292 948.606 555.472 947.959 550.194C938.25 545.171 914.119 546.225 902.767 546.265C902.783 552.886 902.507 559.506 901.938 566.103C901.253 559.066 901.485 552.492 902.064 545.467Z"/><path fill="#048E5A" d="M832.673 867.42C836.098 867.136 840.376 867.315 843.89 867.369C844.56 880.422 844.187 901.685 843.912 914.917C829.394 915 811.3 915.347 797.005 914.335C796.803 903.906 796.723 893.474 796.764 883.043C796.787 878.876 796.647 872.048 797.179 868.129C798.507 867.326 800.101 867.485 801.784 867.4C807.956 867.361 827.46 866.82 832.673 867.42Z"/><path fill="#1E815D" d="M832.673 867.42C836.098 867.136 840.376 867.315 843.89 867.369C844.56 880.422 844.187 901.685 843.912 914.917C829.394 915 811.3 915.347 797.005 914.335C796.803 903.906 796.723 893.474 796.764 883.043C796.787 878.876 796.647 872.048 797.179 868.129C798.507 867.326 800.101 867.485 801.784 867.4C800.351 868.618 798.592 869.815 797.893 871.491C798.234 875.635 798.562 879.588 798.816 883.721C799.315 891.844 798.532 905.187 800.765 912.653C805.003 914.395 836.302 913.761 843.255 913.755C843.277 912.648 843.477 907.442 843.392 906.608C842.912 907.437 842.431 908.43 841.791 909.091C843.162 898.11 842.81 887.395 842.303 876.376C842.197 874.071 842.496 870.152 842.307 868.344C838.405 868.385 836.389 868.648 832.673 867.42Z"/><path fill="#048E5A" d="M701.545 497.635C715.376 497.535 735.518 498.482 748.21 497.473C748.45 502.489 748.44 540.729 747.564 544.481L701.562 544.098C700.708 531.485 701.147 510.438 701.545 497.635Z"/><path fill="#048E5A" d="M900.281 931.234C902.57 931.148 904.962 931.264 907.26 931.327C908.09 945.984 907.09 962.592 907.49 977.675C893.933 978.892 881.305 977.915 867.902 978.468L860.85 978.07C860.744 964.629 860.319 944.472 860.972 931.53C874.049 931.261 887.115 931.555 900.281 931.234Z"/><path fill="#1E815D" d="M763.549 528.972C777.189 528.583 795.888 528.578 809.417 529.044C809.713 537.307 809.53 546.409 809.592 554.724C809.635 560.435 809.857 569.506 809.262 574.991C795.001 575.177 777.664 575.017 763.48 574.516C762.98 560.842 763.333 542.703 763.549 528.972Z"/><path fill="#048E5A" d="M764.747 529.63C767.239 529.414 772.795 530.117 775.987 530.066C786.285 529.899 798.052 529.679 808.307 530.049L808.33 530.839C807.701 530.781 807.071 530.722 806.442 530.664L805.734 531.354C808.663 538.592 807.209 560.953 807.699 570.258C808.538 560.5 808.255 543.168 808.257 532.867C808.98 534.17 808.985 536.697 809.109 538.286C807.853 545.202 810.028 568.845 807.916 573.35C802.679 575.661 768.431 574.412 764.487 570.67C763.925 566.946 764.181 560.428 764.191 556.445L764.245 533.244C765.319 532.822 766.386 532.385 767.448 531.934L767.397 531.125L768.683 530.955L768.518 530.765C766.584 530.836 766.262 530.963 764.455 531.699L764.258 531.462L764.747 529.63Z"/><path fill="#048E5A" d="M834.862 717.052C838.655 716.052 840.44 715.638 844.313 715.178C844.52 721.845 844.48 727.879 844.358 734.553C842.545 734.925 840.242 735.471 838.457 735.743C817.7 739.672 797.028 744.044 776.457 748.856C767.015 751.036 755.547 754.333 746.247 755.965C743.104 752.81 739.55 748.033 736.19 744.475C745.148 738.96 823.605 718.593 834.862 717.052Z"/><path fill="#1E815D" d="M834.862 717.052C838.655 716.052 840.44 715.638 844.313 715.178C844.52 721.845 844.48 727.879 844.358 734.553C842.545 734.925 840.242 735.471 838.457 735.743C846.082 729.525 839.374 721.053 843.136 718.038L843.15 716.419C841.716 716.038 837.962 717.524 834.862 717.052Z"/><path fill="#048E5A" d="M585.575 464.946L594.694 464.994C600.013 464.931 611.841 464.668 616.678 465.091L628.101 464.928C628.433 478.563 628.129 493.177 628.021 506.86C613.846 506.717 599.661 507.258 585.465 506.837C585.788 493.043 585.436 478.829 585.575 464.946Z"/><path fill="#1E815D" d="M585.575 464.946L594.694 464.994C592.725 466.1 592.432 466.165 590.242 466.077L587.21 465.964C586.471 467.066 586.401 499.269 586.849 503.061C587.885 498.539 585.842 471.01 587.747 469.457C589.172 475.54 586.508 497.062 589.048 502.858C596.276 505.646 619.558 503.105 627.255 503.254C627.26 493.638 627.277 482.438 625.432 472.969C625.255 472.058 625.197 472.352 625.404 471.346L627.174 472.902C627.134 470.131 627.044 469.556 627.691 466.93C625.927 465.352 620.339 466.246 616.678 465.091L628.101 464.928C628.433 478.563 628.129 493.177 628.021 506.86C613.846 506.717 599.661 507.258 585.465 506.837C585.788 493.043 585.436 478.829 585.575 464.946Z"/><path fill="#048E5A" d="M857.952 647.565C863.249 647.288 867.713 647.36 872.987 647.467C873.145 659.463 872.502 672.032 873.075 683.865C877.754 683.446 884.065 683.477 888.872 683.363C889.912 689.804 889.58 713.195 889.242 720.378C879.486 719.661 868.58 721.053 858.125 720.387C857.791 712.626 858.024 703.013 858.011 695.151L857.952 647.565Z"/><path fill="#1E815D" d="M114.567 715.408C121.091 717.111 128.729 718.413 135.397 719.841C154.578 723.951 173.533 728.498 192.277 734.311C194.67 735.054 200.075 736.585 201.397 738.465C203.846 741.947 211.922 753.346 213.373 756.484C208.273 754.955 202.614 754.244 197.45 752.753C170.034 744.84 142.191 740.631 114.229 735.149C113.849 729.623 113.973 720.907 114.567 715.408Z"/><path fill="#048E5A" d="M866.115 732.4C875.872 732.101 887.499 732.376 897.344 732.491C900.523 732.235 903.806 732.355 907.002 732.397C907.094 739.315 907.051 746.234 906.872 753.15C906.906 757.538 906.733 769.143 907.485 772.744C894.9 773.412 878.555 773.105 865.831 772.88C866.196 762.95 865.723 752.887 866.15 742.942C866.3 739.445 866.324 735.893 866.115 732.4Z"/><path fill="#1E815D" d="M866.115 732.4C875.872 732.101 887.499 732.376 897.344 732.491C893.33 733.978 873.049 733.172 867.217 733.265C867.189 738.012 869.166 766.777 867.738 769.153C866.795 767.91 866.992 766.906 866.762 765.089C866.954 766.187 866.839 770.148 866.876 771.691C871.173 771.023 873.801 770.533 878.216 770.82L878.737 771.258C875.968 771.883 872.8 771.108 870.727 771.822L871.563 771.824C876.857 771.871 900.45 773.578 903.675 770.354C908.415 765.616 904.234 755.895 906.872 753.15C906.906 757.538 906.733 769.143 907.485 772.744C894.9 773.412 878.555 773.105 865.831 772.88C866.196 762.95 865.723 752.887 866.15 742.942C866.3 739.445 866.324 735.893 866.115 732.4Z"/><path fill="#048E5A" d="M962.164 475.996C975.38 476.148 988.597 476.129 1001.81 475.937C1002.59 487.231 1002.05 504.987 1002.05 516.643C988.961 516.893 974.706 516.705 961.597 516.486C962.668 506.744 961.895 486.932 962.164 475.996Z"/><path fill="#048E5A" d="M531.286 461.074L569.482 461.051C569.558 470.264 570.01 492.033 569.26 500.679L568.301 501.409C555.732 501.083 543.273 501.228 530.697 500.95C531.115 487.743 530.623 474.236 531.286 461.074Z"/><path fill="#048E5A" d="M644.677 500.928C655.15 501.492 671.024 501.558 681.53 501.097C681.004 508.234 681.455 516.408 680.916 522.705C681.074 527.43 680.966 532.676 680.97 537.443L644.541 537.404C644.054 531.769 644.096 528.317 644.243 522.712C644.302 515.69 644.186 507.86 644.677 500.928Z"/><path fill="#1E815D" d="M644.243 522.712C645.113 527.921 645.341 530.406 645.377 535.667C646.67 536.335 646.866 536.513 648.124 535.426C652.24 535.853 655.81 535.031 659.792 535.048C666.07 535.076 672.149 534.766 678.388 534.528C681.46 527.933 679.571 526.965 680.916 522.705C681.074 527.43 680.966 532.676 680.97 537.443L644.541 537.404C644.054 531.769 644.096 528.317 644.243 522.712Z"/><path fill="#048E5A" d="M817.137 503.782C823.792 504.433 830.175 503.52 837.065 504.145C836.851 516.305 836.953 528.826 836.904 541.016L844.761 541.078C844.396 547.969 845.018 556.296 844.289 563.025C837.86 562.922 828.675 562.806 822.397 563.397C823.821 552.772 822.817 529.32 822.768 517.778C822.756 514.847 820.509 516.753 817.895 514.873C816.087 511.436 816.872 507.793 817.137 503.782Z"/><path fill="#048E5A" d="M456.658 553.684C458.041 553.536 463.253 553.775 464.964 553.799L483.443 554.036C483.665 562.868 484.079 577.055 483.864 585.434C482.916 586.3 482.789 585.999 481.125 586.079C471.621 586.074 462.117 585.952 452.616 585.714C452.422 576.934 452.378 563.416 452.658 554.599C454.017 553.696 454.871 553.87 456.658 553.684Z"/><path fill="#048E5A" d="M493.004 515.148C498.853 514.09 517.182 514.616 523.977 514.66C524.228 517.678 524.125 520.723 524.088 523.754C524.186 530.899 524.274 539.398 523.874 546.505C521.777 546.495 519.403 546.541 517.333 546.427C512.471 546.973 498.403 546.554 492.888 546.507L493.004 515.148Z"/><path fill="#1E815D" d="M493.004 515.148C498.853 514.09 517.182 514.616 523.977 514.66C524.228 517.678 524.125 520.723 524.088 523.754L523.336 520.625C522.171 519.991 519.79 518.943 519.219 518.015C521.521 517.585 521.76 520.147 523.183 519.281L522.98 516.347C520.257 514.235 513.628 515.858 510.413 516.462L510.666 516.446C507.145 516.988 504.374 517.492 500.785 517.001C498.883 516.741 495.835 515.689 494.515 516.26C492.954 518.97 493.837 537.005 493.788 541.431C494.731 537.162 493.098 523.764 495.428 520.011L495.878 520.244C493.404 525.218 496.599 537.582 494.035 542.847C493.885 543.156 493.621 544.026 493.533 544.275L493.803 544.745L494.269 544.736C495.634 544.722 496.029 544.67 497.332 545.059C500.671 546.056 515.342 544.231 517.333 546.427C512.471 546.973 498.403 546.554 492.888 546.507L493.004 515.148Z"/><path fill="#048E5A" d="M454.486 468.294C463.714 468.291 473.773 468.172 482.984 468.423C483.211 476.049 483.625 492.559 483.048 499.887L461.332 499.573L452.885 499.429C452.891 494.848 452.657 471.662 453.303 468.72L454.486 468.294Z"/><path fill="#1E815D" d="M452.885 499.429C452.891 494.848 452.657 471.662 453.303 468.72L454.486 468.294C453.105 473.469 454.029 474.25 454.643 479.269C455.574 486.884 451.578 496.433 461.332 499.573L452.885 499.429Z"/><path fill="#1E815D" fill-opacity="0.98823529" d="M366.493 832.874C366.305 832.846 366.117 832.817 365.929 832.789C309.428 820.313 254.32 787.173 221.392 739.983C177.473 677.042 169.59 600.406 166.548 526.667C165.128 493.964 164.923 461.22 165.933 428.501C166.812 401.838 167.496 361.214 171.966 335.255C172.466 340.81 172.986 342.991 172.257 348.476L172.067 345.772C171.308 350.98 171 354.295 170.856 359.511C170.773 362.503 170.996 369.985 170.447 372.481L170.045 372.256C170.041 370.358 170.186 364.576 169.856 363.187C169.065 370.457 169.437 375.73 169.332 382.876C169.272 386.956 168.276 389.888 168.53 394.706L168.748 393.726C168.784 397.135 169.6 416.922 168.592 418.077C167.844 415.796 167.922 402.885 167.919 399.793C167.347 415.065 166.61 430.417 166.422 445.701C166.376 449.437 166.985 453.161 166.893 456.876C166.693 464.942 165.252 473.453 166.675 481.496C167.643 486.97 166.725 493.396 166.733 498.999C166.747 508.386 167.096 517.916 167.559 527.292C168.064 537.522 168.541 547.802 169.399 558.007C169.688 561.441 170.425 564.816 170.693 568.252C171.31 576.134 171.365 584.045 172.278 591.914C176.606 629.212 186.04 674.429 203.544 707.982C206.663 713.961 214.238 729.468 219.077 733.006C220.673 734.173 223.742 735.605 224.308 737.626C224.347 737.765 224.343 737.912 224.361 738.055C222.631 737.235 220.281 734.91 218.764 733.55C218.661 735.135 232.336 753.224 234.445 755.013C251.901 769.825 265.955 790.377 288.168 798.892C297.068 802.303 303.751 808.147 311.075 811.301C329.081 819.055 349.037 824.313 367.065 831.86C367.903 832.196 369.755 831.625 371.821 832.447L366.493 832.874Z"/><path fill="#048E5A" d="M857.86 541.018C866.938 540.955 879.853 540.475 888.565 540.988C887.917 546.601 888.151 556.893 888.132 562.911C883.774 563.796 876.45 563.508 871.855 563.405C867.642 563.661 862.198 563.397 857.739 563.532C857.524 558.863 857.566 552.575 857.925 547.939L857.86 541.018Z"/><path fill="#1E815D" d="M857.925 547.939C858.473 552.421 858.668 555.431 858.773 559.95C862.617 561.233 867.359 563.121 871.337 562.969L871.855 563.405C867.642 563.661 862.198 563.397 857.739 563.532C857.524 558.863 857.566 552.575 857.925 547.939Z"/><path fill="#1E815D" d="M815.658 413.227C822.782 414.493 833.426 412.952 840.906 413.61C845.834 414.044 846.081 414.771 845.408 419.686C840.723 420.898 821.237 420.436 815.389 420.42C815.314 417.611 815.172 416.022 815.658 413.227Z"/><path fill="#1E815D" fill-opacity="0.98823529" d="M931.268 614.715L942.447 614.581C942.761 624.669 943.264 646.411 942.493 656.177L941.82 652.818L941.935 653.159L941.581 653.086C941.247 656.437 941.059 659.545 940.214 662.813C939.639 650.546 940.671 634.163 940.359 620.987L940.58 620.833C941.617 623.56 941.493 633.736 941.642 637.375C941.898 634.119 941.929 618.856 941.438 616.234C939.849 614.782 934.22 616.998 931.268 614.715Z"/><path fill="#1E815D" fill-opacity="0.98823529" d="M563.834 853.02C572.581 850.989 581.671 849.718 590.577 847.639L591.231 848.145C591.045 848.494 590.858 848.844 590.672 849.193C582.246 853.086 573.395 856.452 564.867 860.133C566.84 857.042 571.875 857.127 575.887 853.192L575.527 852.408C571.208 852.316 568.278 853.592 563.834 853.02Z"/><defs><linearGradient id="gradient_0" gradientUnits="userSpaceOnUse" x1="643.49176" y1="792.86218" x2="648.10797" y2="800.93756"><stop offset="0" stop-color="#216F56" stop-opacity="0.98823529"/><stop offset="1" stop-color="#128D5E"/></linearGradient></defs><path fill="url(#gradient_0)" d="M643.989 791.138C651.779 790.586 659.642 790.714 667.454 790.742L667.618 791.382C662.205 793.398 650.245 788.695 647.643 795.237C646.093 799.136 647.362 803.761 645.84 807.497C645.44 804.764 645.446 804.176 643.894 801.934L643.989 791.138Z"/><path fill="#1E815D" fill-opacity="0.98823529" d="M817.397 328.838C823.895 328.161 829.992 328.2 836.777 328.694C843.699 329.198 844.253 323.071 844.285 317.497L844.855 316.649C844.917 321.1 845.083 325.717 844.714 330.138C837.437 329.975 824.169 330.748 817.878 329.574L817.397 328.838Z"/><path fill="#1E815D" fill-opacity="0.98823529" d="M758.39 648.151C763.124 646.417 768.462 647.818 771.05 642.704C771.055 644.623 771.336 645.983 770.197 647.431C767.318 649.112 762.46 648.054 758.39 648.151Z"/></svg>