<?xml version="1.0" encoding="utf-8" ?><svg xmlns="http://www.w3.org/2000/svg" xmlns:xlink="http://www.w3.org/1999/xlink" width="1024" height="1024" viewBox="0 0 1024 1024"><path fill="#065F46" d="M178.865 289.174C188.547 290.488 200.904 293.757 210.571 296.21C239.429 303.625 267.857 312.626 295.723 323.173C364.848 349.956 437.002 387.578 495.578 433.162C498.986 436.234 518.067 450.302 518.454 453.622C520.262 469.123 517.613 509.149 511.729 521.468C508.935 531.298 502.928 537.405 494.628 543.024C475.759 555.797 473.806 553.757 467.22 533.35C460.841 511.846 450.988 499.043 436.307 482.939C435.454 479.354 436.383 472.316 435.385 466.799C431.741 457.563 427.003 450.241 417.537 446.105C410.417 443.031 402.353 442.983 395.198 445.974C358.38 461.287 380.88 517.719 419.968 500.179C421.481 499.512 422.966 498.783 424.418 497.992C449.449 505.199 459.895 540.822 456.083 563.683C453.62 591.929 443.927 606.387 455.26 635.562C484.616 711.134 592.065 695.886 599.022 615.745C600.236 601.767 597.13 586.365 597.219 571.834C598.77 576.677 597.97 583.426 598.622 588.457C601.265 607.723 601.31 626.94 592.373 644.533C580.722 667.466 560.916 680.612 536.007 685.081C530.75 686.024 526.236 683.736 526.65 690.937C527.4 703.998 526.062 716.859 525.832 729.991L525.601 897.546L525.67 934.402C525.635 939.764 525.461 946.301 525.634 951.707C525.638 951.829 526.933 953.734 527.142 954.002C525.621 955.276 524.698 955.108 522.563 955.527L521.636 955.339L521.486 954.272C521.367 951.801 515.799 947.012 513.613 944.81C505.409 936.956 486.219 917.265 477.047 911.349C474.195 908.201 469.694 904.57 466.266 902.044C457.207 894.014 437.868 879.253 427.616 872.672C423.251 869.128 409.679 860.554 404.729 857.62C403.579 856.376 387.879 846.907 385.516 845.485C322.565 807.579 249.987 773.378 180.02 751.178C178.684 745.325 179.127 733.88 179.074 727.551C178.846 711.285 178.83 695.017 179.026 678.75L178.92 549.932C179.211 500.098 179.181 450.263 178.832 400.429C178.574 376.203 178.472 351.976 178.526 327.749C178.534 316.478 178.078 300.098 178.865 289.174Z"/><path fill="#288164" d="M525.832 729.991C522.811 725.978 527.084 709.15 524.9 704.312C519.904 702.352 511.896 702.794 505.526 700.264C501.456 698.647 497.432 695.894 493.672 693.64C479.243 684.99 467.995 675.707 461.781 659.387C461.668 659.091 461.562 658.793 461.448 658.498C460.519 656.095 460.467 654.822 461.109 652.35C461.467 650.972 453.592 634.162 452.458 630.836C451.046 626.694 450.227 621.741 449.765 617.388C448.133 602.002 451.534 589.571 454.061 574.724C454.866 569.997 455.004 565.234 455.678 560.497C456.118 561.734 456.019 562.345 456.083 563.683C453.62 591.929 443.927 606.387 455.26 635.562C484.616 711.134 592.065 695.886 599.022 615.745C600.236 601.767 597.13 586.365 597.219 571.834C598.77 576.677 597.97 583.426 598.622 588.457C601.265 607.723 601.31 626.94 592.373 644.533C580.722 667.466 560.916 680.612 536.007 685.081C530.75 686.024 526.236 683.736 526.65 690.937C527.4 703.998 526.062 716.859 525.832 729.991Z"/><path fill="#288164" d="M467.22 533.35L467.512 532.856C469.031 533.309 470.242 542.693 473.135 546.367C473.464 544.954 473.122 543.595 472.976 542.122C474.711 542.735 473.334 544.223 475.25 545.279C475.535 545.139 478.135 543.782 477.987 543.792C482.312 543.499 485.266 547.124 489.659 544.94C495.848 541.864 502.985 535.863 506.972 530.153C507.992 528.692 510.233 523.173 510.892 521.476L511.729 521.468C508.935 531.298 502.928 537.405 494.628 543.024C475.759 555.797 473.806 553.757 467.22 533.35Z"/><path fill="#1B594A" d="M435.385 466.799C441.149 474.51 437.312 475.514 436.307 482.939C435.454 479.354 436.383 472.316 435.385 466.799Z"/><path fill="#0CA671" d="M595.064 499.068L594.971 499.946C594.003 508.694 586.696 550.255 581.161 553.907C579.009 555.328 575.775 555.134 573.46 554.313C569.733 552.99 566.249 550.375 562.89 548.325C553.122 542.36 544.778 537.65 539.933 526.748C531.942 508.765 532.942 486.797 532.975 467.502C532.982 463.286 532.117 457.191 533.608 453.289C535.09 449.411 550.099 438.76 554.395 435.404C615.793 388.212 683.962 350.555 756.599 323.708C785.841 312.461 815.725 302.957 846.092 295.246C853.484 293.387 865.199 290.181 872.409 289.008C873.202 337.082 872.635 386.654 872.619 434.826L872.829 684.996C872.877 706.994 872.379 729.059 872.63 751.035C773.815 782.615 668.354 836.107 586.997 900.336C566.358 916.63 546.544 936.183 527.142 954.002C526.933 953.734 525.638 951.829 525.634 951.707C525.461 946.301 525.635 939.764 525.67 934.402L525.601 897.546L525.832 729.991C526.062 716.859 527.4 703.998 526.65 690.937C526.236 683.736 530.75 686.024 536.007 685.081C560.916 680.612 580.722 667.466 592.373 644.533C601.31 626.94 601.265 607.723 598.622 588.457C597.97 583.426 598.77 576.677 597.219 571.834C597.862 553.956 600.419 516.559 613.674 503.834C622.907 502.26 631.668 499.618 637.276 491.644C647.205 477.527 644.155 458.606 630.213 448.744C623.604 444.119 615.404 442.366 607.481 443.886C599.637 445.318 592.695 449.835 588.207 456.427C577.926 471.744 584.878 486.395 595.064 499.068Z"/><path fill="#1A2436" d="M93.9373 336.534C107.186 337.21 120.694 337.009 133.974 336.938C134.945 345.07 134.455 365.685 134.455 374.77L134.45 447.116L134.485 689.846L134.546 751.188C134.526 757.627 133.987 777.256 134.99 782.391C143.185 784.681 153.074 788.598 161.129 791.605L199.871 806.272C231.249 818.22 262.444 830.643 293.446 843.537L295.196 844.211C308.612 850.484 323.541 856.289 337.301 862.347C364.088 874.211 390.69 886.487 417.1 899.169C437.184 909.018 457.081 919.243 476.782 929.838C487.531 935.66 498.609 942.134 509.414 947.699C511.757 949.17 519.353 954.343 521.486 954.272L521.636 955.339L522.563 955.527C527.922 957.463 535.415 951.793 540.384 948.865C582.209 924.231 626.577 902.472 670.681 882.259C730.689 854.732 791.529 829.054 853.114 805.261C855.82 804.373 858.471 803.3 861.124 802.263L891.548 790.96C898.019 788.534 910.326 783.65 916.882 782.464C917.789 744.348 916.747 705.857 916.957 667.75L917.125 337.145L923.025 336.858L923.64 336.915C934.255 337.293 945.842 336.993 956.529 336.881C957.491 494.561 957.496 652.244 956.545 809.924C953.024 811.598 949.32 812.785 945.641 814.057C935.489 817.569 925.427 821.335 915.347 825.047C887.032 835.443 858.826 846.131 830.732 857.111C761.964 884.594 694.268 914.688 627.793 947.328C618.496 951.848 605.846 957.179 597.283 962.411C594.796 963.93 586.534 974.562 582.441 978.351C568.241 991.388 549.878 998.968 530.616 999.743C524.314 999.98 518.966 999.342 512.755 998.996C502.72 996.836 496.624 994.707 487.334 990.725C486.667 990.05 482.639 987.602 481.594 986.93C475.699 983.034 467.971 977.229 464.091 971.19C457.518 960.961 451.227 960.162 440.656 955.152L411.291 940.892C384.592 927.93 357.66 915.452 330.509 903.465C319.27 898.477 306.631 892.579 295.184 888.149C293.539 887.125 291.369 886.425 289.525 885.734C246.829 867.607 203.746 850.404 160.307 834.137L119.469 819.072C111.339 816.071 101.677 812.744 94.002 809.042C94.94 799.836 94.3989 779.756 94.3292 770.119L94.4495 718.24L94.4237 528.781L94.4279 388.318C94.3551 377.894 94.3625 367.47 94.45 357.047C94.4781 351.35 94.7978 341.887 93.9373 336.534Z"/><path fill="#0CA671" d="M519.985 286.679C553.83 283.525 567.697 320.723 544.011 342.822C539.346 347.174 537.151 351.076 535.474 357.073C530.725 374.062 532.122 391.49 526.33 408.226L524.839 411.948L524.256 411.851C523.898 410.487 523.617 409.292 522.614 408.243C519.686 405.179 518.487 375.067 517.81 368.905C517.228 363.615 516.526 357.957 514.771 352.907C511.118 342.4 499.837 339.117 495.906 326.301C493.444 318.278 495.146 309.418 499.026 302.141C503.469 293.807 511.328 289.409 519.985 286.679Z"/><path fill="#288164" d="M502.701 578.06C506.49 578.129 514.832 577.473 517.835 578.874C522.046 586.454 528.33 604.613 531.982 613.139C534.531 619.09 539.904 631.765 541.653 637.438C540.11 638.049 532.686 637.967 530.64 637.851C523.124 637.424 527.555 627.559 521.622 626.979C513.732 626.752 505.836 626.872 497.956 627.338C497.246 628.154 496.147 629.145 495.345 629.92C494.663 632.516 493.669 635.411 492.848 637.997L480.295 638.042C485.246 621.281 493.751 604.241 499.443 587.604C500.533 584.421 501.575 581.236 502.701 578.06ZM501.787 616.888C505.399 616.817 509.012 616.811 512.625 616.869C514.643 616.833 516.912 616.732 518.904 616.828C518.078 610.181 515.355 605.153 512.778 599.027C512.366 598.048 510.56 592.615 510.374 592.416C508.046 596.976 502.75 611.942 501.787 616.888Z"/><path fill="#0CA671" d="M567.734 243.975C569.133 241.357 574.02 237.938 576.773 237.052C599.742 229.657 612.856 263.673 589.242 271.445C583.096 273.577 576.949 272.479 571.664 268.664C567.55 265.677 564.859 261.116 564.235 256.07C563.662 251.366 564.948 247.686 567.734 243.975Z"/><path fill="#065F46" d="M480.398 375.633C480.71 376.02 481.016 376.413 481.316 376.81C490.708 389.384 478.389 406.839 463.49 402.563C442.174 396.446 449.964 364.329 473.854 371.269C476.215 372.661 478.333 373.802 480.398 375.633Z"/><path fill="#288164" d="M549.652 577.867C553.498 579.513 556.996 577.543 560.773 579.181C562.215 582.497 561.487 631.215 561.724 638.451C559.262 637.892 552.873 638.087 550.116 638.094C549.161 632.083 548.46 583.163 549.652 577.867Z"/><path fill="#065F46" d="M524.057 186.742C531.46 186.224 537.962 191.62 538.816 198.992C539.671 206.364 534.576 213.105 527.251 214.294C522.206 215.113 517.12 213.094 514.01 209.038C510.9 204.983 510.27 199.547 512.37 194.887C514.469 190.228 518.959 187.099 524.057 186.742Z"/><path fill="#0CA671" d="M580.649 359.758C588 357.977 595.402 362.493 597.18 369.845C598.958 377.196 594.439 384.597 587.087 386.372C579.739 388.145 572.344 383.629 570.567 376.282C568.79 368.935 573.303 361.538 580.649 359.758Z"/><path fill="#0CA671" d="M474.336 241.783C478.674 241.25 482.963 243.095 485.558 246.612C488.154 250.129 488.653 254.771 486.865 258.759C485.076 262.748 481.278 265.463 476.926 265.864C475.144 266.029 473.349 265.796 471.668 265.184C466.407 263.268 463.146 257.995 463.78 252.432C464.414 246.87 468.779 242.466 474.336 241.783Z"/><path fill="#0CA671" d="M523.931 81.5327C530.396 80.8913 536.156 85.6133 536.796 92.0785C537.435 98.5436 532.712 104.303 526.246 104.941C523.753 105.187 521.246 104.63 519.091 103.352C514.72 100.758 512.509 95.6511 513.609 90.6894C514.71 85.7278 518.873 82.0343 523.931 81.5327Z"/></svg>